# xmcd
#
# Track frame offsets: 
#        151
#        23756
#        50660
#        72724
#        86540
#        102927
#        115086
#        135829
#        159338
#        193838
#        232473
#        262002
#        284614
#        303382
#        325074
#        342515
#
# Disc length: 4621 seconds
#
# Revision: 0
# Processed by: cddbd v1.5.2PL0 Copyright (c) Steve Scherf et al.
# Submitted via: ExactAudioCopy v0.99pb4
#
DISCID=f0120b10
DTITLE=Hobo Blues Band - Apák rock and rollja cd2
DYEAR=2008
DGENRE=Blues
TTITLE0=A vadászok bevonulása
TTITLE1=Mesél az erdõ
TTITLE2=Hajtók dala
TTITLE3=A fattyú reménytelen szerelme és halála
TTITLE4=Szabadíts fel!
TTITLE5=A bolond levele a kisfiúnak
TTITLE6=45-ös blues
TTITLE7=Másik Magyarország
TTITLE8=Nem lehet két hazád
TTITLE9=A vadászok kivonulása
TTITLE10=Középeurópai hobo blues II.
TTITLE11=Védj meg a gonosztól
TTITLE12=Torta
TTITLE13=Hosszúlábú asszony
TTITLE14=Enyém, tiéd, miénk
TTITLE15=Végbeszéd
EXTD=
EXTT0=
EXTT1=
EXTT2=
EXTT3=
EXTT4=
EXTT5=
EXTT6=
EXTT7=
EXTT8=
EXTT9=
EXTT10=
EXTT11=
EXTT12=
EXTT13=
EXTT14=
EXTT15=
PLAYORDER=
